<svg width="18" height="18" viewBox="0 0 18 18" fill="none" xmlns="http://www.w3.org/2000/svg">
<path d="M15.5 0C16.8672 0 18 1.13281 18 2.5V15C18 16.4062 16.8672 17.5 15.5 17.5H3C1.59375 17.5 0.5 16.4062 0.5 15V2.5C0.5 1.13281 1.59375 0 3 0H15.5ZM11.75 13.75C12.2578 13.75 12.6875 13.3594 12.6875 12.8125C12.6875 12.3047 12.2578 11.875 11.75 11.875H10.1875V4.6875C10.1875 4.375 9.99219 4.02344 9.67969 3.86719C9.36719 3.71094 9.01562 3.75 8.70312 3.94531L6.67188 5.27344C6.24219 5.54688 6.125 6.13281 6.4375 6.5625C6.71094 6.99219 7.29688 7.10938 7.72656 6.83594L8.3125 6.44531V11.875H6.75C6.20312 11.875 5.8125 12.3047 5.8125 12.8125C5.8125 13.3594 6.20312 13.75 6.75 13.75H11.75Z" fill="#02103F"/>
</svg>
