<svg width="18" height="18" viewBox="0 0 18 18" fill="none" xmlns="http://www.w3.org/2000/svg">
<path d="M15.5 0C16.8672 0 18 1.13281 18 2.5V15C18 16.4062 16.8672 17.5 15.5 17.5H3C1.59375 17.5 0.5 16.4062 0.5 15V2.5C0.5 1.13281 1.59375 0 3 0H15.5ZM12.0625 13.75C12.5703 13.75 13 13.3594 13 12.8125C13 12.3047 12.5703 11.875 12.0625 11.875H8.85938L11.3203 9.64844C11.9844 9.02344 12.3359 8.125 12.3359 7.22656C12.3359 6.28906 11.9844 5.42969 11.3203 4.76562C9.95312 3.4375 7.72656 3.4375 6.39844 4.76562L5.96875 5.19531C5.57812 5.54688 5.57812 6.13281 5.92969 6.52344C6.28125 6.875 6.90625 6.91406 7.25781 6.52344L7.6875 6.09375C8.3125 5.46875 9.36719 5.46875 9.99219 6.09375C10.3047 6.40625 10.4609 6.79688 10.4609 7.22656C10.4609 7.61719 10.3047 8.00781 10.0312 8.28125L5.77344 12.1484C5.5 12.3828 5.42188 12.8125 5.53906 13.1641C5.69531 13.5156 6.04688 13.75 6.4375 13.75H12.0625Z" fill="#02103F"/>
</svg>
