<svg width="22" height="22" viewBox="0 0 22 22" fill="none" xmlns="http://www.w3.org/2000/svg">
<path d="M3.3335 0.5H18.3335C19.9741 0.5 21.3335 1.85938 21.3335 3.5V18.5C21.3335 20.1875 19.9741 21.5 18.3335 21.5H3.3335C1.646 21.5 0.333496 20.1875 0.333496 18.5V3.5C0.333496 1.85938 1.646 0.5 3.3335 0.5ZM7.4585 5C6.80225 5 6.3335 5.51562 6.3335 6.125C6.3335 6.78125 6.80225 7.25 7.4585 7.25H10.5522L8.16162 9.45312C7.8335 9.73438 7.69287 10.25 7.88037 10.6719C8.06787 11.0938 8.48975 11.375 8.9585 11.375H11.3491C12.2866 11.375 13.0366 12.125 13.0366 13.0625C13.0366 14 12.2866 14.75 11.3491 14.75H10.0366C9.42725 14.75 8.86475 14.4688 8.48975 13.9062L8.396 13.7188C8.06787 13.2031 7.36475 13.0156 6.84912 13.3438C6.3335 13.6719 6.146 14.375 6.47412 14.8906L6.61475 15.0781C7.31787 16.2969 8.63037 17 10.0835 17H11.3491C13.5522 17 15.3335 15.2656 15.3335 13.0625C15.3335 11.0469 13.7866 9.35938 11.8179 9.17188L14.2085 6.96875C14.5366 6.64062 14.6772 6.17188 14.4897 5.75C14.3022 5.32812 13.8804 5 13.4585 5H7.4585Z" fill="#84329B"/>
</svg>
