<svg width="21" height="21" viewBox="0 0 21 21" fill="none" xmlns="http://www.w3.org/2000/svg">
<path d="M18 0C19.6406 0 21 1.35938 21 3V18C21 19.6875 19.6406 21 18 21H3C1.3125 21 0 19.6875 0 18V3C0 1.35938 1.3125 0 3 0H18ZM13.5 16.5C14.1094 16.5 14.625 16.0312 14.625 15.375C14.625 14.7656 14.1094 14.25 13.5 14.25H11.625V5.625C11.625 5.25 11.3906 4.82812 11.0156 4.64062C10.6406 4.45312 10.2188 4.5 9.84375 4.73438L7.40625 6.32812C6.89062 6.65625 6.75 7.35938 7.125 7.875C7.45312 8.39062 8.15625 8.53125 8.67188 8.20312L9.375 7.73438V14.25H7.5C6.84375 14.25 6.375 14.7656 6.375 15.375C6.375 16.0312 6.84375 16.5 7.5 16.5H13.5Z" fill="#84329B"/>
</svg>
