<svg width="22" height="22" viewBox="0 0 22 22" fill="none" xmlns="http://www.w3.org/2000/svg">
<path d="M18.6665 0.5C20.3071 0.5 21.6665 1.85938 21.6665 3.5V18.5C21.6665 20.1875 20.3071 21.5 18.6665 21.5H3.6665C1.979 21.5 0.666504 20.1875 0.666504 18.5V3.5C0.666504 1.85938 1.979 0.5 3.6665 0.5H18.6665ZM14.5415 17C15.1509 17 15.6665 16.5312 15.6665 15.875C15.6665 15.2656 15.1509 14.75 14.5415 14.75H10.6978L13.6509 12.0781C14.4478 11.3281 14.8696 10.25 14.8696 9.17188C14.8696 8.04688 14.4478 7.01562 13.6509 6.21875C12.0103 4.625 9.33838 4.625 7.74463 6.21875L7.229 6.73438C6.76025 7.15625 6.76025 7.85938 7.18213 8.32812C7.604 8.75 8.354 8.79688 8.77588 8.32812L9.2915 7.8125C10.0415 7.0625 11.3071 7.0625 12.0571 7.8125C12.4321 8.1875 12.6196 8.65625 12.6196 9.17188C12.6196 9.64062 12.4321 10.1094 12.104 10.4375L6.99463 15.0781C6.6665 15.3594 6.57275 15.875 6.71338 16.2969C6.90088 16.7188 7.32275 17 7.7915 17H14.5415Z" fill="#84329B"/>
</svg>
