<svg width="18" height="18" viewBox="0 0 18 18" fill="none" xmlns="http://www.w3.org/2000/svg">
<path d="M15.5 0C16.8672 0 18 1.13281 18 2.5V15C18 16.4062 16.8672 17.5 15.5 17.5H3C1.59375 17.5 0.5 16.4062 0.5 15V2.5C0.5 1.13281 1.59375 0 3 0H15.5ZM9.71875 13.75C11.5156 13.75 13 12.3047 13 10.4688C13 8.78906 11.7109 7.42188 10.0703 7.22656L12.0625 5.39062C12.3359 5.11719 12.4141 4.72656 12.2969 4.375C12.1406 4.02344 11.7891 3.75 11.4375 3.75H6.4375C5.89062 3.75 5.5 4.17969 5.5 4.6875C5.5 5.23438 5.89062 5.625 6.4375 5.625H9.01562L7.02344 7.46094C6.75 7.69531 6.67188 8.125 6.78906 8.47656C6.94531 8.82812 7.29688 9.0625 7.6875 9.0625H9.71875C10.4609 9.0625 11.125 9.72656 11.125 10.4688C11.125 11.25 10.4609 11.875 9.71875 11.875H7.96094C7.64844 11.875 7.41406 11.7188 7.29688 11.4062C7.14062 10.9375 6.63281 10.6641 6.125 10.8203C5.61719 11.0156 5.38281 11.5234 5.53906 12.0312C5.89062 13.0859 6.86719 13.75 7.96094 13.75H9.71875Z" fill="#02103F"/>
</svg>
