<?xml version="1.0" encoding="UTF-8"?>
<svg id="Layer_1" data-name="Layer 1" xmlns="http://www.w3.org/2000/svg" width="200" height="200" version="1.1" viewBox="0 0 200 200">
  <defs>
    <style>
      .cls-1 {
        fill: #000;
      }

      .cls-1, .cls-2, .cls-3, .cls-4 {
        stroke-width: 0px;
      }

      .cls-5 {
        stroke: #231f20;
        stroke-width: 3.6px;
      }

      .cls-5, .cls-6 {
        fill: none;
        stroke-linecap: round;
        stroke-linejoin: round;
      }

      .cls-2 {
        fill: #5d6ab0;
      }

      .cls-6 {
        stroke: #000;
        stroke-dasharray: 0 0 4 10;
        stroke-width: 3.6px;
      }

      .cls-3 {
        fill: #cccdd1;
      }

      .cls-4 {
        fill: #fff;
      }
    </style>
  </defs>
  <path id="Path_10764" data-name="Path 10764" class="cls-6" d="M-378.2,59.6"/>
  <path id="Path_10792" data-name="Path 10792" class="cls-3" d="M34.8,147.9c19.1,26.4,52,40,82.8,34.9,56.6-9.5,75.9-74.2,50.1-122.8-12.2-25-38.4-54.3-67.7-39-11.6,6-16.2,15.3-22.8,25.9-4.6,7.4-9.8,14.3-15.6,20.6-12.3,13.4-33.9,30.4-35.9,51-1.1,10.1,2.6,21,9.1,29.4"/>
  <g>
    <g>
      <path class="cls-4" d="M67.2,43.3h58.5c7,0,12.8,5.7,12.8,12.8v87.8c0,7-5.7,12.8-12.8,12.8h-58.5c-7,0-12.8-5.7-12.8-12.8V56.1c0-7,5.7-12.8,12.8-12.8Z"/>
      <path class="cls-1" d="M125.7,45.1c6.1,0,11,4.9,11,11v87.8c0,6.1-4.9,11-11,11h-58.5c-6.1,0-11-4.9-11-11V56.1c0-6.1,4.9-11,11-11h58.5M125.7,41.5h-58.5c-8,0-14.6,6.5-14.6,14.6v87.8c0,8,6.5,14.6,14.6,14.6h58.5c8,0,14.6-6.5,14.6-14.6V56.1c0-8-6.5-14.6-14.6-14.6h0Z"/>
    </g>
    <g>
      <g>
        <path class="cls-1" d="M117.1,146.2c-.3,0-.5,0-.7-.2-.5-.3-.8-.8-.8-1.3l.2-16c0-2.2.6-4.5,1.7-6.6l28.2-49.8c1.2-2.1,3.3-3.3,5.7-3.3s2.2.3,3.2.8l7.1,4c3.1,1.8,4.3,5.8,2.5,8.9l-28.1,49.9c-.9,1.5-2.4,3.5-4.6,4.9l-13.5,8.5c-.2.1-.5.2-.8.2Z"/>
        <path class="cls-1" d="M151.4,69.4c1,0,2,.3,3,.8l7.1,4c2.9,1.6,3.9,5.3,2.3,8.2l-28.1,49.9c-1.1,1.8-2.6,3.5-4.5,4.7l-13.5,8.5c-.2,0-.3.1-.5.1s-.3,0-.5-.1c-.3-.2-.5-.5-.5-.9l.2-16c0-2.2.6-4.3,1.7-6.4l28.2-49.8c1.1-2,3.2-3.1,5.3-3.1M151.4,68.4h0c-2.5,0-4.9,1.4-6.1,3.6l-28.2,49.8c-1.2,2.2-1.8,4.5-1.8,6.8l-.2,16c0,.7.4,1.4,1,1.8.3.2.6.3,1,.3s.7-.1,1.1-.3l13.6-8.5c2.3-1.4,3.9-3.5,4.8-5l28.1-50c1.9-3.4.7-7.7-2.7-9.6l-7.1-4c-1.1-.6-2.2-.9-3.5-.9h0Z"/>
      </g>
      <path class="cls-2" d="M142.1,83.9l14.2,8,5.9-10.4c1.1-1.9.4-4.4-1.5-5.5l-7.1-4c-1.9-1.1-4.4-.4-5.6,1.6l-5.7,10.4Z"/>
      <g>
        <path class="cls-2" d="M119.8,123.4c-.9,1.6-1.4,3.4-1.4,5.3l-.2,14.1,12-7.5c1.6-1,2.9-2.4,3.8-4h0s-14.1-8-14.1-8h0Z"/>
        <polygon class="cls-4" points="140 87.3 119.8 123.4 133.9 131.4 154.2 95.3 140 87.3"/>
      </g>
      <path class="cls-1" d="M133.9,133.4c-.3,0-.7,0-1-.3l-14.2-8c-1-.5-1.3-1.8-.8-2.7.5-1,1.8-1.3,2.7-.8l14.2,8c1,.5,1.3,1.8.8,2.7-.4.7-1,1-1.7,1Z"/>
    </g>
    <g>
      <line class="cls-5" x1="68.3" y1="72.6" x2="125.7" y2="72.6"/>
      <line class="cls-5" x1="68.3" y1="94.1" x2="123.9" y2="94.1"/>
      <line class="cls-5" x1="68.3" y1="115.6" x2="100.5" y2="115.6"/>
    </g>
  </g>
</svg>