<?xml version="1.0" encoding="UTF-8"?>
<svg id="Layer_1" data-name="Layer 1" xmlns="http://www.w3.org/2000/svg" width="200" height="200" version="1.1" viewBox="0 0 200 200">
  <defs>
    <style>
      .cls-1 {
        fill: #000;
      }

      .cls-1, .cls-2, .cls-3, .cls-4 {
        stroke-width: 0px;
      }

      .cls-2 {
        fill: #5d6ab0;
      }

      .cls-5 {
        fill: none;
        stroke: #000;
        stroke-dasharray: 0 0 4 10;
        stroke-linecap: round;
        stroke-linejoin: round;
        stroke-width: 3.6px;
      }

      .cls-3 {
        fill: #cccdd1;
      }

      .cls-4 {
        fill: #fff;
      }
    </style>
  </defs>
  <path id="Path_10764" data-name="Path 10764" class="cls-5" d="M257.9,59.6"/>
  <g>
    <path id="Path_10764-2" data-name="Path 10764" class="cls-3" d="M30.9,150.5c5.3,11.4,12.9,21,24.2,26.5,22.2,10.8,48.8,5.7,71.4-1.1,14.4-4.4,29.6-7.8,42.4-15.9,16.3-10.3,20.8-23.1,20.1-41.9-.7-18.9-3.5-37.6-8.3-55.8-3.8-14.4-10.3-33-25-39.8-3.9-1.6-7.9-2.6-12.1-2.9-33.5-3.8-69.8,1.5-101.4,12.7-26.7,9.5-28.8,31.3-25.1,56.5,1.3,8.6,2.4,18.6,4.4,29,2,11,4.9,22.5,9.6,32.6"/>
    <g>
      <path class="cls-4" d="M126.1,164.9c-.3,0-.6,0-.8-.2l-24.5-12.9-24.5,12.9c-.3.1-.6.2-.8.2s-.7-.1-1.1-.3c-.6-.4-.8-1.1-.7-1.8l4.7-27.4-19.9-19.3c-.5-.5-.7-1.2-.5-1.8.2-.7.8-1.1,1.5-1.2l27.5-4,12.3-24.8c.3-.6.9-1,1.6-1s1.3.4,1.6,1l12.2,24.8,27.8,3.6c.7,0,1.3.6,1.5,1.2.2.7,0,1.4-.5,1.9l-20.3,19.7,4.7,27.4c.1.7-.2,1.4-.7,1.8-.3.2-.7.3-1.1.3Z"/>
      <path class="cls-1" d="M100.8,85l12.7,25.7,28.8,3.7-21,20.4,4.9,28.3-25.4-13.3-25.4,13.3,4.9-28.3-20.5-19.9,28.4-4.1,12.7-25.7M100.8,81.4c-1.4,0-2.6.8-3.2,2l-11.8,24-26.5,3.9c-1.4.2-2.5,1.1-2.9,2.5-.4,1.3,0,2.7.9,3.7l19.2,18.6-4.5,26.4c-.2,1.4.3,2.7,1.4,3.5.6.5,1.4.7,2.1.7s1.1-.1,1.7-.4l23.7-12.4,23.7,12.4c.5.3,1.1.4,1.7.4s1.5-.2,2.1-.7c1.1-.8,1.7-2.2,1.4-3.5l-4.5-26.4,19.6-19.1c1-1,1.3-2.4.9-3.7-.4-1.3-1.6-2.3-3-2.4l-26.8-3.4-11.8-24c-.6-1.2-1.9-2-3.2-2h0Z"/>
    </g>
    <g>
      <path class="cls-2" d="M78.4,86.8c-.3,0-.6,0-.8-.2l-15.5-8.1-15.5,8.1c-.3.1-.6.2-.8.2s-.7-.1-1.1-.3c-.6-.4-.8-1.1-.7-1.8l3-17.2-12.5-12.1c-.5-.5-.7-1.2-.5-1.8.2-.7.8-1.1,1.5-1.2l17.3-2.5,7.7-15.7c.3-.6.9-1,1.6-1s1.3.4,1.6,1l7.7,15.6,17.5,2.3c.7,0,1.3.6,1.5,1.2.2.7,0,1.4-.5,1.9l-12.8,12.4,3,17.2c.1.7-.2,1.4-.7,1.8-.3.2-.7.3-1.1.3Z"/>
      <path class="cls-1" d="M62.2,34.9l8.1,16.5,18.5,2.4-13.5,13.1,3.1,18.2-16.3-8.6-16.3,8.6,3.1-18.2-13.2-12.8,18.3-2.7,8.1-16.5M62.2,31.3c-1.4,0-2.6.8-3.2,2l-7.3,14.8-16.4,2.4c-1.4.2-2.5,1.1-2.9,2.5-.4,1.3,0,2.7.9,3.7l11.8,11.5-2.8,16.3c-.2,1.4.3,2.7,1.4,3.5.6.5,1.4.7,2.1.7s1.1-.1,1.7-.4l14.6-7.7,14.6,7.7c.5.3,1.1.4,1.7.4s1.5-.2,2.1-.7c1.1-.8,1.7-2.2,1.4-3.5l-2.8-16.3,12.1-11.8c1-1,1.3-2.4.9-3.7-.4-1.3-1.6-2.3-3-2.4l-16.6-2.1-7.3-14.8c-.6-1.2-1.9-2-3.2-2h0Z"/>
    </g>
    <g>
      <path class="cls-4" d="M123.3,86.8c-.4,0-.7-.1-1.1-.3-.6-.4-.8-1.1-.7-1.8l3-17.2-12.5-12.1c-.5-.5-.7-1.2-.5-1.8s.8-1.1,1.5-1.2l17.3-2.5,7.7-15.7c.3-.6.9-1,1.6-1s1.3.4,1.6,1l7.7,15.6,17.5,2.3c.7,0,1.3.6,1.5,1.2.2.7,0,1.4-.5,1.9l-12.8,12.4,3,17.2c.1.7-.2,1.4-.7,1.8-.3.2-.7.3-1.1.3s-.6,0-.8-.2l-15.5-8.1-15.5,8.1c-.3.1-.6.2-.8.2Z"/>
      <path class="cls-1" d="M139.6,34.9l8.1,16.5,18.5,2.4-13.5,13.1,3.1,18.2-16.3-8.6-16.3,8.6,3.1-18.2-13.2-12.8,18.3-2.7,8.1-16.5M139.6,31.3c-1.4,0-2.6.8-3.2,2l-7.3,14.8-16.4,2.4c-1.4.2-2.5,1.1-2.9,2.5-.4,1.3,0,2.7.9,3.7l11.8,11.5-2.8,16.3c-.2,1.4.3,2.7,1.4,3.5.6.5,1.4.7,2.1.7s1.1-.1,1.7-.4l14.6-7.7,14.6,7.7c.5.3,1.1.4,1.7.4s1.5-.2,2.1-.7c1.1-.8,1.7-2.2,1.4-3.5l-2.8-16.3,12.1-11.8c1-1,1.3-2.4.9-3.7-.4-1.3-1.6-2.3-3-2.4l-16.6-2.1-7.3-14.8c-.6-1.2-1.9-2-3.2-2h0Z"/>
    </g>
  </g>
</svg>