<?xml version="1.0" encoding="utf-8"?>
<!-- Generator: Adobe Illustrator 28.3.0, SVG Export Plug-In . SVG Version: 6.00 Build 0)  -->
<svg version="1.1" id="Layer_1" xmlns="http://www.w3.org/2000/svg" xmlns:xlink="http://www.w3.org/1999/xlink" x="0px" y="0px"
	 width="128px" height="128px" viewBox="0 0 128 128" style="enable-background:new 0 0 128 128;" xml:space="preserve">
<style type="text/css">
	.st0{fill:#FFFFFF;}
	.st1{clip-path:url(#SVGID_00000138552746117231141300000015416779492101866423_);}
	.st2{fill:#5F6BB2;}
</style>
<g>
	<g>
		<rect x="38.4" y="32.4" class="st0" width="51.5" height="51.5"/>
		<g>
			<defs>
				<rect id="SVGID_1_" x="13.6" y="13.4" width="101.3" height="101.3"/>
			</defs>
			<clipPath id="SVGID_00000136372718803596457670000000522230881778066615_">
				<use xlink:href="#SVGID_1_"  style="overflow:visible;"/>
			</clipPath>
			<g id="favicon_notification" style="clip-path:url(#SVGID_00000136372718803596457670000000522230881778066615_);">
				<path class="st2" d="M114.7,40.5c0-6.6-2.7-12.9-7.4-17.4c-4.4-4.3-10.2-6.7-16.4-6.9c-0.1,0-0.2,0-0.2,0c-0.1,0-0.2,0-0.2,0
					H17.1c-2,0.5-3.4,2.3-3.5,4.4v69.7l0,0v4.9c0,2,1.6,3.5,3.5,3.5h12v9.2c0,0.2,0,0.3,0,0.3v0.1c0,0.1,0,0.2,0.1,0.2
					c0,0.1,0,0.2,0.1,0.2c0,0.1,0,0.1,0,0.2c0,0.2,0.1,0.2,0.2,0.3l0,0c0.1,0.2,0.2,0.3,0.2,0.4l0.1,0.1c0.1,0.2,0.2,0.3,0.3,0.3
					l0.1,0.1c0.1,0.1,0.2,0.2,0.3,0.3l0.1,0.1c0.2,0.1,0.2,0.2,0.3,0.3h0.1c0.2,0.1,0.2,0.2,0.3,0.2l0.1,0.1
					c0.2,0.1,0.3,0.2,0.4,0.2l0,0c0.2,0.1,0.3,0.1,0.4,0.1c0.1,0,0.1,0,0.2,0c0.2,0,0.3,0,0.4,0l0,0c0.2,0,0.2,0,0.3,0H33
					c0.1,0,0.2,0,0.3-0.1c0.1,0,0.2-0.1,0.2-0.1s0.1,0,0.2,0s0.2-0.1,0.3-0.2l0,0l0,0l30-12.5h35.5c0.3-0.1,0.7-0.1,1,0
					c3.8,0.1,7.6-1.6,10.2-4.4c2.4-2.6,3.8-6,3.8-9.6V40.9v-0.1v-0.1C114.7,40.7,114.7,40.6,114.7,40.5z M87.8,53.1
					c-0.1,0.3-0.2,0.7-0.5,0.9L76.8,64.2l2.4,14.2c0.2,0.9-0.3,1.7-1.2,1.9c-0.3,0.1-0.7,0-1-0.2l-13.2-6.7l-13.1,6.7l0,0
					c-0.8,0.3-1.7,0.1-2.1-0.8c-0.2-0.3-0.2-0.7-0.2-1l2.5-14.2L40.3,54.1c-0.7-0.6-0.7-1.7-0.1-2.4c0.2-0.3,0.5-0.4,0.9-0.5
					l14.7-2.1l6.6-13c0.3-0.8,1.3-1.1,2-0.7c0.3,0.2,0.5,0.4,0.7,0.7l6.6,13l14.7,2.1C87.4,51.4,88,52.4,87.8,53.1z"/>
			</g>
		</g>
	</g>
</g>
</svg>
