<svg width="58" height="42" viewBox="0 0 58 42" fill="none" xmlns="http://www.w3.org/2000/svg">
<path d="M28.911 3.54167L51.3172 0.916674C52.6297 0.729174 53.9422 1.47917 54.411 2.69792L57.411 9.72917C58.3485 11.8854 57.1297 14.3229 54.786 14.7917L39.8797 18.2604C38.0985 18.7292 36.3172 17.9792 35.1922 16.4792L28.911 7.57292L22.536 16.4792C21.411 17.9792 19.6297 18.7292 17.8485 18.2604L2.94223 14.7917C0.598475 14.3229 -0.620275 11.8854 0.317225 9.72917L3.31723 2.69792C3.78598 1.47917 5.09848 0.729174 6.41098 0.916674L28.911 3.54167ZM3.03598 10.8542C2.84848 11.3229 3.12973 11.7917 3.59848 11.8854L18.5047 15.3542C19.0672 15.5417 19.7235 15.2604 20.0985 14.7917L26.1922 6.26042L6.03598 3.91667L3.03598 10.8542ZM37.6297 14.7917C38.0047 15.2604 38.661 15.5417 39.2235 15.3542L54.1297 11.8854C54.5985 11.7917 54.8797 11.3229 54.6922 10.8542L51.6922 3.91667L31.536 6.26042L37.6297 14.7917ZM49.911 18.4479L52.911 17.6042V31.7604C52.911 33.8229 51.5047 35.6042 49.4422 36.1667L29.9422 41.0417C29.286 41.1354 28.536 41.1354 27.786 41.0417L8.28598 36.1667C6.22348 35.6042 4.91098 33.8229 4.91098 31.7604V17.6042L7.91098 18.4479V31.7604C7.91098 32.4167 8.28598 33.0729 9.03598 33.1667L27.411 37.7604V15.7292C27.411 14.9792 28.0672 14.2292 28.911 14.2292C29.661 14.2292 30.411 14.9792 30.411 15.7292V37.7604L48.6922 33.1667C49.4422 33.0729 49.911 32.4167 49.911 31.7604V18.4479Z" fill="#02103F"/>
</svg>
