<svg width="50" height="50" viewBox="0 0 50 50" fill="none" xmlns="http://www.w3.org/2000/svg">
<path d="M42.5 24.9609C42.5 18.7109 39.1406 13.0078 33.75 9.88281C28.2812 6.67969 21.6406 6.67969 16.25 9.88281C10.7812 13.0078 7.5 18.7109 7.5 24.9609C7.5 31.2891 10.7812 36.9922 16.25 40.1172C21.6406 43.3203 28.2812 43.3203 33.75 40.1172C39.1406 36.9922 42.5 31.2891 42.5 24.9609ZM5 24.9609C5 17.8516 8.75 11.2891 15 7.69531C21.1719 4.10156 28.75 4.10156 35 7.69531C41.1719 11.2891 45 17.8516 45 24.9609C45 32.1484 41.1719 38.7109 35 42.3047C28.75 45.8984 21.1719 45.8984 15 42.3047C8.75 38.7109 5 32.1484 5 24.9609ZM25 34.9609C28.5156 34.9609 31.7969 33.0859 33.5938 29.9609C35.3906 26.9141 35.3906 23.0859 33.5938 19.9609C31.7969 16.9141 28.5156 14.9609 25 14.9609C21.4062 14.9609 18.125 16.9141 16.3281 19.9609C14.5312 23.0859 14.5312 26.9141 16.3281 29.9609C18.125 33.0859 21.4062 34.9609 25 34.9609ZM25 12.4609C29.4531 12.4609 33.5156 14.8828 35.7812 18.7109C38.0469 22.6172 38.0469 27.3828 35.7812 31.2109C33.5156 35.1172 29.4531 37.4609 25 37.4609C20.4688 37.4609 16.4062 35.1172 14.1406 31.2109C11.875 27.3828 11.875 22.6172 14.1406 18.7109C16.4062 14.8828 20.4688 12.4609 25 12.4609ZM25 27.4609C26.3281 27.4609 27.5 26.3672 27.5 24.9609C27.5 23.6328 26.3281 22.4609 25 22.4609C23.5938 22.4609 22.5 23.6328 22.5 24.9609C22.5 26.3672 23.5938 27.4609 25 27.4609ZM25 19.9609C26.7188 19.9609 28.3594 20.9766 29.2969 22.4609C30.1562 24.0234 30.1562 25.9766 29.2969 27.4609C28.3594 29.0234 26.7188 29.9609 25 29.9609C23.2031 29.9609 21.5625 29.0234 20.625 27.4609C19.7656 25.9766 19.7656 24.0234 20.625 22.4609C21.5625 20.9766 23.2031 19.9609 25 19.9609Z" fill="#287D5F"/>
</svg>
