<svg width="54" height="36" viewBox="0 0 54 36" fill="none" xmlns="http://www.w3.org/2000/svg">
<path d="M52.3125 3.375C53.3438 3.9375 54 4.875 54 6V30C54 31.125 53.3438 32.1562 52.3125 32.7188C51.9375 32.9062 51.4688 33 51 33C50.3438 33 49.7812 32.9062 49.2188 32.5312L39.5625 25.7812C38.9062 25.3125 38.7188 24.375 39.1875 23.625C39.6562 22.9688 40.5938 22.7812 41.3438 23.25L51 30V6L41.3438 12.75C40.5938 13.2188 39.6562 13.125 39.1875 12.4688C38.7188 11.7188 38.9062 10.7812 39.5625 10.3125L49.2188 3.5625C50.1562 2.90625 51.375 2.90625 52.3125 3.375ZM30 0C33.2812 0 36 2.71875 36 6V30C36 33.375 33.2812 36 30 36H6C2.625 36 0 33.375 0 30V6C0 2.71875 2.625 0 6 0H30ZM33 30V6C33 4.40625 31.5938 3 30 3H6C4.3125 3 3 4.40625 3 6V30C3 31.6875 4.3125 33 6 33H30C31.5938 33 33 31.6875 33 30Z" fill="#02103F"/>
</svg>
