<svg width="32" height="28" viewBox="0 0 32 28" fill="none" xmlns="http://www.w3.org/2000/svg">
<path d="M2 0C3.0625 0 4 0.9375 4 2V23C4 23.5625 4.4375 24 5 24H30C31.0625 24 32 24.9375 32 26C32 27.125 31.0625 28 30 28H5C2.1875 28 0 25.8125 0 23V2C0 0.9375 0.875 0 2 0ZM8 6C8 4.9375 8.875 4 10 4H22C23.0625 4 24 4.9375 24 6C24 7.125 23.0625 8 22 8H10C8.875 8 8 7.125 8 6ZM18 10C19.0625 10 20 10.9375 20 12C20 13.125 19.0625 14 18 14H10C8.875 14 8 13.125 8 12C8 10.9375 8.875 10 10 10H18ZM26 16C27.0625 16 28 16.9375 28 18C28 19.125 27.0625 20 26 20H10C8.875 20 8 19.125 8 18C8 16.9375 8.875 16 10 16H26Z" fill="#287D5F"/>
</svg>
