<svg width="50" height="50" viewBox="0 0 50 50" fill="none" xmlns="http://www.w3.org/2000/svg">
<path d="M42.5 24.9609C42.5 18.7109 39.1406 13.0078 33.75 9.88281C28.2812 6.67969 21.6406 6.67969 16.25 9.88281C10.7812 13.0078 7.5 18.7109 7.5 24.9609C7.5 31.2891 10.7812 36.9922 16.25 40.1172C21.6406 43.3203 28.2812 43.3203 33.75 40.1172C39.1406 36.9922 42.5 31.2891 42.5 24.9609ZM5 24.9609C5 17.8516 8.75 11.2891 15 7.69531C21.1719 4.10156 28.75 4.10156 35 7.69531C41.1719 11.2891 45 17.8516 45 24.9609C45 32.1484 41.1719 38.7109 35 42.3047C28.75 45.8984 21.1719 45.8984 15 42.3047C8.75 38.7109 5 32.1484 5 24.9609ZM26.25 14.3359V16.1328C27.2656 16.2109 28.2812 16.5234 29.2969 16.8359C29.4531 16.8359 29.5312 16.9141 29.6875 16.9141C30.3125 17.0703 30.7031 17.7734 30.5469 18.4766C30.3906 19.1016 29.6875 19.4922 28.9844 19.3359C28.8281 19.2578 28.5938 19.2578 28.4375 19.1797C27.8906 19.0234 27.2656 18.7891 26.6406 18.7109C25.1562 18.5547 23.8281 18.7109 22.8125 19.1016C21.7969 19.5703 21.3281 20.1953 21.25 20.6641C21.0938 21.4453 21.4062 21.9141 22.0312 22.3828C22.8906 22.8516 24.1406 23.2422 25.625 23.6328V23.7109C27.0312 24.1016 28.6719 24.5703 29.9219 25.3516C31.4062 26.3672 32.0312 28.0078 31.7188 29.8047C31.4062 31.4453 30.2344 32.6172 28.75 33.1641C28.0469 33.4766 27.1094 33.7109 26.1719 33.7109V35.5859C26.1719 36.2891 25.625 36.8359 24.9219 36.8359C24.2969 36.8359 23.6719 36.2891 23.6719 35.5859V33.6328C23.0469 33.4766 22.0312 33.1641 21.1719 32.9297C20.625 32.7734 20.0781 32.6172 19.5312 32.4609C18.9062 32.2266 18.5156 31.5234 18.75 30.8203C18.9844 30.1953 19.6875 29.8828 20.3125 30.0391C20.8594 30.1953 21.3281 30.4297 21.875 30.5859C22.7344 30.8203 23.6719 31.0547 24.0625 31.1328C25.625 31.3672 26.9531 31.2109 27.8125 30.8984C28.6719 30.5078 29.1406 29.9609 29.2969 29.3359C29.375 28.4766 29.1406 27.8516 28.4375 27.3828C27.5 26.7578 26.4062 26.4453 25.2344 26.1328C25.0781 26.1328 24.9219 26.0547 24.7656 25.9766C23.3594 25.6641 21.875 25.1953 20.7031 24.4141C20.0781 24.0234 19.4531 23.4766 19.0625 22.7734C18.6719 21.9922 18.5938 21.1328 18.75 20.1953C19.0625 18.5547 20.3125 17.4609 21.7969 16.8359C22.3438 16.6016 23.0469 16.3672 23.6719 16.2891V14.3359C23.6719 13.7109 24.2188 13.0859 24.9219 13.0859C25.625 13.0859 26.1719 13.7109 26.1719 14.3359H26.25Z" fill="#287D5F"/>
</svg>
