<svg width="61" height="48" viewBox="0 0 61 48" fill="none" xmlns="http://www.w3.org/2000/svg">
<path d="M39.0557 16.5C39.0557 25.6875 30.2432 33 19.5557 33C17.587 33 15.8057 32.8125 14.0245 32.3438C11.3995 34.125 7.27449 36 2.21199 36C1.36824 36 0.524491 35.5312 0.149491 34.6875C-0.131759 33.8438 -0.0380087 32.9062 0.618241 32.25C0.618241 32.25 2.86824 29.8125 4.27449 26.8125C1.64949 24 0.0557413 20.4375 0.0557413 16.5C0.0557413 7.40625 8.77449 0 19.5557 0C30.2432 0 39.0557 7.40625 39.0557 16.5ZM19.5557 30C28.6495 30 36.0557 24 36.0557 16.5C36.0557 9.09375 28.6495 3 19.5557 3C10.3682 3 3.05574 9.09375 3.05574 16.5C3.05574 19.5 4.18074 22.4062 6.43074 24.75L7.83699 26.25L6.99324 28.125C6.05574 30.0938 4.83699 31.7812 3.99324 33C7.55574 32.625 10.462 31.125 12.4307 29.9062L13.462 29.1562L14.7745 29.4375C16.2745 29.8125 17.962 30 19.5557 30ZM56.8682 40.875C58.087 42.8438 59.3995 44.25 59.3995 44.3438C59.962 44.9062 60.1495 45.8438 59.8682 46.6875C59.4932 47.5312 58.6495 48 57.8057 48C54.712 48 52.087 47.3438 49.837 46.4062C47.3995 47.4375 44.7745 48 42.0557 48C33.5245 48 26.4932 42.75 24.5245 35.5312C25.5557 35.3438 26.587 35.0625 27.5245 34.7812C29.1182 40.6875 34.9307 45 42.0557 45C44.3057 45 46.462 44.5312 48.6182 43.6875L49.7432 43.125L50.962 43.5938C52.6495 44.3438 54.337 44.8125 56.0245 45C55.5557 44.3438 54.8995 43.4062 54.337 42.4688L53.212 40.6875L54.4307 39.0938C56.1182 36.8438 57.0557 34.2188 57.0557 31.5C57.0557 24.0938 50.3057 18 42.0557 18C41.962 18 41.962 18.0938 41.962 18.0938C41.962 17.5312 42.0557 17.0625 42.0557 16.5C42.0557 16.0312 41.962 15.5625 41.962 15.0938C41.962 15.0938 41.962 15 42.0557 15C51.9932 15 60.0557 22.4062 60.0557 31.5C60.0557 34.9688 58.837 38.25 56.8682 40.875Z" fill="#02103F"/>
</svg>
