<svg width="50" height="50" viewBox="0 0 50 50" fill="none" xmlns="http://www.w3.org/2000/svg">
<path d="M34 12C35.625 12 37 13.375 37 15C37 16 36.5 16.875 35.75 17.4375L34.875 18.0625C30.75 18.5 27.25 21.1875 25.75 24.9375L22.1875 27.625C21.4375 28.1875 20.5 28.1875 19.75 27.625L6.1875 17.4375C5.4375 16.875 5 16 5 15C5 13.375 6.3125 12 8 12H34ZM23.375 29.25L25 28C25 28.3125 25 28.6875 25 29C25 31.6875 25.9375 34.125 27.5 36H9C6.75 36 5 34.25 5 32V19L18.5625 29.25C20 30.3125 21.9375 30.3125 23.375 29.25ZM45 29C45 34 40.9375 38 36 38C31 38 27 34 27 29C27 24.0625 31 20 36 20C40.9375 20 45 24.0625 45 29ZM38.75 26.3125L35 30.125L33.1875 28.3125C32.8125 27.9375 32.125 27.9375 31.75 28.3125C31.375 28.6875 31.375 29.375 31.75 29.75L34.25 32.25C34.625 32.625 35.3125 32.625 35.6875 32.25L40.1875 27.75C40.5625 27.375 40.5625 26.6875 40.1875 26.3125C39.8125 25.9375 39.125 25.9375 38.75 26.3125Z" fill="#0F4E37"/>
</svg>
