<svg width="50" height="48" viewBox="0 0 50 48" fill="none" xmlns="http://www.w3.org/2000/svg">
<path d="M33.5156 6.5C32.1094 6.5 30.8594 7.20312 30.0781 8.375L26.5625 14H27.5H33.75C35.7812 14 37.5 12.3594 37.5 10.25C37.5 8.21875 35.7812 6.5 33.75 6.5H33.5156ZM23.3594 14L19.8438 8.375C19.0625 7.20312 17.8125 6.5 16.4062 6.5H16.25C14.1406 6.5 12.5 8.21875 12.5 10.25C12.5 12.3594 14.1406 14 16.25 14H22.5H23.3594ZM25 11.8906L27.9688 7.04688C29.2188 5.17188 31.25 4 33.5156 4H33.75C37.1875 4 40 6.8125 40 10.25C40 11.6562 39.5312 12.9844 38.75 14H41.25C43.2812 14 45 15.7188 45 17.75V22.75C45 24.3906 43.9062 25.7969 42.5 26.3438V26.5V39C42.5 41.8125 40.2344 44 37.5 44H12.5C9.6875 44 7.5 41.8125 7.5 39V26.5V26.3438C6.01562 25.7969 5 24.3906 5 22.75V17.75C5 15.7188 6.64062 14 8.75 14H11.25C10.4688 12.9844 10 11.6562 10 10.25C10 6.8125 12.7344 4 16.25 4H16.4062C18.6719 4 20.7812 5.17188 21.9531 7.04688L25 11.8906ZM16.25 16.5H8.75C8.04688 16.5 7.5 17.125 7.5 17.75V22.75C7.5 23.4531 8.04688 24 8.75 24H10H23.75V16.5H22.5H16.25ZM26.25 16.5V24H40H41.25C41.875 24 42.5 23.4531 42.5 22.75V17.75C42.5 17.125 41.875 16.5 41.25 16.5H33.75H27.5H26.25ZM23.75 26.5H10V39C10 40.4062 11.0938 41.5 12.5 41.5H23.75V26.5ZM26.25 41.5H37.5C38.8281 41.5 40 40.4062 40 39V26.5H26.25V41.5Z" fill="#02103F"/>
</svg>
