<svg width="40" height="25" viewBox="0 0 40 25" fill="none" xmlns="http://www.w3.org/2000/svg">
<path d="M0 20V4.0625H6V18C6 19.125 5.0625 20 4 20H0ZM3 16.0625C2.4375 16.0625 2 16.5 2 17.0625C2 17.5625 2.4375 18.0625 3 18.0625C3.5 18.0625 4 17.5625 4 17.0625C4 16.5 3.5 16.0625 3 16.0625ZM21.75 0H22.3125C25.9375 0 29.375 1.4375 31.9375 4V16.125C31.8125 15.9375 31.625 15.8125 31.5 15.625L22.375 8.25L24 6.75C24.4375 6.375 24.4375 5.75 24.0625 5.375C23.6875 4.9375 23.0625 4.9375 22.625 5.3125L17.6875 9.875C17.625 9.875 17.625 9.875 17.625 9.875C16.5625 10.8125 14.9375 10.5 14.125 9.6875C13.25 8.75 13.25 7.1875 14.25 6.1875L20.4375 0.5625C20.8125 0.1875 21.25 0 21.75 0ZM20.875 9.625L30.1875 17.1875C31.0625 17.875 31.1875 19.125 30.5 20L29.9375 20.75C29.1875 21.625 27.9375 21.75 27.125 21.0625L26.75 20.75L24.8125 23.1875C24 24.1875 22.5 24.25 21.5 23.5L20.375 22.5625C19 24.25 16.5 24.5625 14.75 23.125L9.125 18H8V4C10.5625 1.5 14 0 17.625 0H18.0625L12.9375 4.6875C11.125 6.375 11 9.25 12.625 11.0625C14.3125 12.875 17.125 13 19 11.3125L20.875 9.625ZM34 4.0625H40V20L35.9375 20.0625C34.875 20.0625 34 19.125 34 18V4.0625ZM37 18C37.5 18 38 17.5625 38 17.0625C38 16.5 37.5 16.0625 37 16.0625C36.4375 16.0625 36 16.5 36 17.0625C36 17.5625 36.4375 18 37 18Z" fill="#287D5F"/>
</svg>
