<svg width="40" height="40" viewBox="0 0 40 40" fill="none" xmlns="http://www.w3.org/2000/svg">
<path d="M23.25 25.5C22.7578 25.5 22.375 25.1172 22.375 24.625C22.375 24.1875 22.7578 23.75 23.25 23.75H30.25C30.6875 23.75 31.125 24.1875 31.125 24.625C31.125 25.1172 30.6875 25.5 30.25 25.5H23.25ZM32 8C33.9141 8 35.5 9.58594 35.5 11.5V29C35.5 30.9688 33.9141 32.5 32 32.5H7.5C5.53125 32.5 4 30.9688 4 29V11.5C4 9.58594 5.53125 8 7.5 8H32ZM33.75 29V13.25H5.75V29C5.75 29.9844 6.51562 30.75 7.5 30.75H32C32.9297 30.75 33.75 29.9844 33.75 29ZM5.75 11.5H33.75C33.75 10.5703 32.9297 9.75 32 9.75H7.5C6.51562 9.75 5.75 10.5703 5.75 11.5ZM23.25 18.5C22.7578 18.5 22.375 18.1172 22.375 17.625C22.375 17.1875 22.7578 16.75 23.25 16.75H30.25C30.6875 16.75 31.125 17.1875 31.125 17.625C31.125 18.1172 30.6875 18.5 30.25 18.5H23.25ZM23.25 22C22.7578 22 22.375 21.6172 22.375 21.125C22.375 20.6875 22.7578 20.25 23.25 20.25H30.25C30.6875 20.25 31.125 20.6875 31.125 21.125C31.125 21.6172 30.6875 22 30.25 22H23.25ZM14.5 22C12.5312 22 11 20.4688 11 18.5C11 16.5859 12.5312 15 14.5 15C16.4141 15 18 16.5859 18 18.5C18 20.4688 16.4141 22 14.5 22ZM14.5 16.75C13.5156 16.75 12.75 17.5703 12.75 18.5C12.75 19.4844 13.5156 20.25 14.5 20.25C15.4297 20.25 16.25 19.4844 16.25 18.5C16.25 17.5703 15.4297 16.75 14.5 16.75ZM9.25 29C8.75781 29 8.375 28.6172 8.375 28.125C8.375 25.7188 10.2891 23.75 12.75 23.75H16.25C18.6562 23.75 20.625 25.7188 20.625 28.125C20.625 28.6172 20.1875 29 19.75 29C19.2578 29 18.875 28.6172 18.875 28.125C18.875 26.7031 17.6719 25.5 16.25 25.5H12.75C11.2734 25.5 10.125 26.7031 10.125 28.125C10.125 28.6172 9.6875 29 9.25 29Z" fill="#02103F"/>
</svg>
