<svg width="50" height="48" viewBox="0 0 50 48" fill="none" xmlns="http://www.w3.org/2000/svg">
<path d="M32.5 6.5H17.5C16.0938 6.5 15 7.67188 15 9V29H35V9C35 7.67188 33.8281 6.5 32.5 6.5ZM35 31.5H15V39C15 40.4062 16.0938 41.5 17.5 41.5H32.5C33.8281 41.5 35 40.4062 35 39V31.5ZM17.5 4H32.5C35.2344 4 37.5 6.26562 37.5 9V39C37.5 41.8125 35.2344 44 32.5 44H17.5C14.6875 44 12.5 41.8125 12.5 39V9C12.5 6.26562 14.6875 4 17.5 4ZM26.875 36.5C26.875 37.5938 26.0156 38.375 25 38.375C23.9062 38.375 23.125 37.5938 23.125 36.5C23.125 35.4844 23.9062 34.625 25 34.625C26.0156 34.625 26.875 35.4844 26.875 36.5Z" fill="#02103F"/>
</svg>
