<svg width="50" height="48" viewBox="0 0 50 48" fill="none" xmlns="http://www.w3.org/2000/svg">
<path d="M15 6.5C13.5938 6.5 12.5 7.67188 12.5 9V39C12.5 40.4062 13.5938 41.5 15 41.5H35C36.3281 41.5 37.5 40.4062 37.5 39V9C37.5 7.67188 36.3281 6.5 35 6.5H15ZM10 9C10 6.26562 12.1875 4 15 4H35C37.7344 4 40 6.26562 40 9V39C40 41.8125 37.7344 44 35 44H15C12.1875 44 10 41.8125 10 39V9ZM16.25 14H33.75C34.375 14 35 14.625 35 15.25C35 15.9531 34.375 16.5 33.75 16.5H16.25C15.5469 16.5 15 15.9531 15 15.25C15 14.625 15.5469 14 16.25 14ZM16.25 21.5H33.75C34.375 21.5 35 22.125 35 22.75C35 23.4531 34.375 24 33.75 24H16.25C15.5469 24 15 23.4531 15 22.75C15 22.125 15.5469 21.5 16.25 21.5ZM16.25 29H26.25C26.875 29 27.5 29.625 27.5 30.25C27.5 30.9531 26.875 31.5 26.25 31.5H16.25C15.5469 31.5 15 30.9531 15 30.25C15 29.625 15.5469 29 16.25 29Z" fill="#02103F"/>
</svg>
