<svg width="32" height="32" viewBox="0 0 32 32" fill="none" xmlns="http://www.w3.org/2000/svg">
<path d="M16.0312 0C16.2812 0 16.5938 0.125 16.8438 0.1875L28.5938 5.1875C29.9688 5.8125 31.0312 7.125 31.0312 8.75C30.9688 15 28.4062 26.3125 17.6562 31.5C16.5938 32 15.4062 32 14.3438 31.5C3.59375 26.3125 1.03125 15 0.96875 8.75C0.96875 7.125 2.03125 5.8125 3.40625 5.1875L15.1562 0.1875C15.4062 0.125 15.7188 0 16.0312 0ZM16.0312 27.8125C24.5938 23.625 26.9688 14.4375 27.0312 8.875L16.0312 4.1875V27.8125Z" fill="#287D5F"/>
</svg>
