<svg width="50" height="50" viewBox="0 0 50 50" fill="none" xmlns="http://www.w3.org/2000/svg">
<path d="M25.6908 7.75391C25.0658 7.44141 24.3627 7.44141 23.7377 7.75391L9.90953 13.6133C9.05015 13.9258 8.42515 14.7852 8.50328 15.7227C8.50328 23.0664 11.5502 36.0352 23.7377 41.8945C24.3627 42.207 25.0658 42.207 25.6908 41.8945C37.8783 36.0352 40.9252 23.0664 41.0033 15.7227C41.0033 14.7852 40.3783 13.9258 39.5189 13.6133L25.6908 7.75391ZM22.8002 5.41016C24.0502 4.86328 25.4564 4.86328 26.7064 5.41016L40.4564 11.2695C42.1752 12.0508 43.5033 13.6914 43.5033 15.7227C43.4252 23.5352 40.222 37.6758 26.7845 44.1602C25.4564 44.7852 23.972 44.7852 22.6439 44.1602C9.2064 37.6758 6.00328 23.5352 6.00328 15.7227C5.92515 13.6914 7.25328 12.0508 8.97203 11.2695L22.8002 5.41016Z" fill="#287D5F"/>
</svg>
