<svg width="61" height="60" viewBox="0 0 61 60" fill="none" xmlns="http://www.w3.org/2000/svg">
<rect x="0.666626" width="60" height="60" rx="30" fill="#9E45B7"/>
<path d="M22.6666 19C22.6666 17.9375 22.0416 17 21.1666 16.4375C20.2291 15.875 19.0416 15.875 18.1666 16.4375C17.2291 17 16.6666 17.9375 16.6666 19C16.6666 20.125 17.2291 21.0625 18.1666 21.625C19.0416 22.1875 20.2291 22.1875 21.1666 21.625C22.0416 21.0625 22.6666 20.125 22.6666 19ZM14.6666 19C14.6666 17.25 15.6041 15.625 17.1666 14.6875C18.6666 13.8125 20.6041 13.8125 22.1666 14.6875C23.6666 15.625 24.6666 17.25 24.6666 19C24.6666 20.8125 23.6666 22.4375 22.1666 23.375C20.6041 24.25 18.6666 24.25 17.1666 23.375C15.6041 22.4375 14.6666 20.8125 14.6666 19ZM30.6666 32C32.0416 32 33.3541 31.25 34.1041 30C34.7916 28.8125 34.7916 27.25 34.1041 26C33.3541 24.8125 32.0416 24 30.6666 24C29.2291 24 27.9166 24.8125 27.1666 26C26.4791 27.25 26.4791 28.8125 27.1666 30C27.9166 31.25 29.2291 32 30.6666 32ZM30.6666 22C32.7916 22 34.7291 23.1875 35.8541 25C36.9166 26.875 36.9166 29.1875 35.8541 31C34.7291 32.875 32.7916 34 30.6666 34C28.4791 34 26.5416 32.875 25.4166 31C24.3541 29.1875 24.3541 26.875 25.4166 25C26.5416 23.1875 28.4791 22 30.6666 22ZM26.9791 38C23.6041 38 20.7916 40.6875 20.6666 44H38.6666C38.6666 44.75 38.8541 45.4375 39.1666 46H20.2916C19.4166 46 18.6666 45.3125 18.6666 44.375C18.6666 39.75 22.3541 36 26.9791 36H34.2916C34.6041 36 34.8541 36.0625 35.1666 36.0625C34.8541 36.625 34.6666 37.3125 34.6666 38V38.0625C34.5416 38 34.4166 38 34.2916 38H26.9791ZM42.6666 22C43.7291 22 44.6666 21.4375 45.2291 20.5C45.7916 19.625 45.7916 18.4375 45.2291 17.5C44.6666 16.625 43.7291 16 42.6666 16C41.5416 16 40.6041 16.625 40.0416 17.5C39.4791 18.4375 39.4791 19.625 40.0416 20.5C40.6041 21.4375 41.5416 22 42.6666 22ZM42.6666 14C44.4166 14 46.0416 15 46.9791 16.5C47.8541 18.0625 47.8541 20 46.9791 21.5C46.0416 23.0625 44.4166 24 42.6666 24C40.8541 24 39.2291 23.0625 38.2916 21.5C37.4166 20 37.4166 18.0625 38.2916 16.5C39.2291 15 40.8541 14 42.6666 14ZM43.6666 28H38.6666C38.6666 27.3125 38.5416 26.6875 38.4166 26H43.6666C47.4791 26 50.6666 29.1875 50.6666 33C50.6666 33.5625 50.1666 34 49.6666 34C49.1041 34 48.6666 33.5625 48.6666 33C48.6666 30.25 46.4166 28 43.6666 28ZM22.6666 28H17.6666C14.8541 28 12.6666 30.25 12.6666 33C12.6666 33.5625 12.1666 34 11.6666 34C11.1041 34 10.6666 33.5625 10.6666 33C10.6666 29.1875 13.7916 26 17.6666 26H22.9166C22.7291 26.6875 22.6666 27.3125 22.6666 28ZM42.6666 32H44.6666C45.7291 32 46.6666 32.9375 46.6666 34V36H48.6666C49.7291 36 50.6666 36.9375 50.6666 38V40C50.6666 41.125 49.7291 42 48.6666 42H46.6666V44C46.6666 45.125 45.7291 46 44.6666 46H42.6666C41.5416 46 40.6666 45.125 40.6666 44V42H38.6666C37.5416 42 36.6666 41.125 36.6666 40V38C36.6666 36.9375 37.5416 36 38.6666 36H40.6666V34C40.6666 32.9375 41.5416 32 42.6666 32ZM42.6666 37C42.6666 37.5625 42.1666 38 41.6666 38H38.6666V40H41.6666C42.1666 40 42.6666 40.5 42.6666 41V44H44.6666V41C44.6666 40.5 45.1041 40 45.6666 40H48.6666V38H45.6666C45.1041 38 44.6666 37.5625 44.6666 37V34H42.6666V37Z" fill="white"/>
</svg>
