<svg width="61" height="60" viewBox="0 0 61 60" fill="none" xmlns="http://www.w3.org/2000/svg">
<rect x="0.333252" width="60" height="60" rx="30" fill="#9E45B7"/>
<path d="M37.1458 16C36.0208 16 35.0208 16.5625 34.3958 17.5L31.5833 22H32.3333H37.3333C38.9583 22 40.3333 20.6875 40.3333 19C40.3333 17.375 38.9583 16 37.3333 16H37.1458ZM29.0208 22L26.2083 17.5C25.5833 16.5625 24.5833 16 23.4583 16H23.3333C21.6458 16 20.3333 17.375 20.3333 19C20.3333 20.6875 21.6458 22 23.3333 22H28.3333H29.0208ZM30.3333 20.3125L32.7083 16.4375C33.7083 14.9375 35.3333 14 37.1458 14H37.3333C40.0833 14 42.3333 16.25 42.3333 19C42.3333 20.125 41.9583 21.1875 41.3333 22H43.3333C44.9583 22 46.3333 23.375 46.3333 25V29C46.3333 30.3125 45.4583 31.4375 44.3333 31.875V32V42C44.3333 44.25 42.5208 46 40.3333 46H20.3333C18.0833 46 16.3333 44.25 16.3333 42V32V31.875C15.1458 31.4375 14.3333 30.3125 14.3333 29V25C14.3333 23.375 15.6458 22 17.3333 22H19.3333C18.7083 21.1875 18.3333 20.125 18.3333 19C18.3333 16.25 20.5208 14 23.3333 14H23.4583C25.2708 14 26.9583 14.9375 27.8958 16.4375L30.3333 20.3125ZM23.3333 24H17.3333C16.7708 24 16.3333 24.5 16.3333 25V29C16.3333 29.5625 16.7708 30 17.3333 30H18.3333H29.3333V24H28.3333H23.3333ZM31.3333 24V30H42.3333H43.3333C43.8333 30 44.3333 29.5625 44.3333 29V25C44.3333 24.5 43.8333 24 43.3333 24H37.3333H32.3333H31.3333ZM29.3333 32H18.3333V42C18.3333 43.125 19.2083 44 20.3333 44H29.3333V32ZM31.3333 44H40.3333C41.3958 44 42.3333 43.125 42.3333 42V32H31.3333V44Z" fill="white"/>
</svg>
