<svg width="60" height="60" viewBox="0 0 60 60" fill="none" xmlns="http://www.w3.org/2000/svg">
<rect width="60" height="60" rx="30" fill="#287D5F"/>
<path d="M16 30V33C16 33.5625 15.5 34 15 34C14.4375 34 14 33.5625 14 33V30C14 21.1875 21.125 14 30 14C35 14 39.5 16.3125 42.4375 19.9375C42.75 20.375 42.6875 21 42.25 21.375C41.8125 21.6875 41.1875 21.625 40.875 21.1875C38.3125 18.0625 34.375 16 30 16C22.25 16 16 22.3125 16 30ZM45.375 25.75C45.75 27.125 46 28.5625 46 30V33C46 33.5625 45.5 34 45 34C44.4375 34 44 33.5625 44 33V30C44 28.75 43.8125 27.5 43.4375 26.3125C43.3125 25.75 43.625 25.1875 44.1875 25.0625C44.6875 24.9375 45.25 25.25 45.375 25.75ZM30 19H29.9375C36.0625 19 40.9375 23.9375 40.9375 30V31.5625C40.9375 33.4375 40.875 35.3125 40.625 37.1875C40.5625 37.6875 40.125 38 39.625 38C39 38 38.5625 37.5 38.625 36.875C38.875 35.125 39 33.375 39 31.5625V30C39 25.0625 34.9375 21 30 21C28.875 21 27.8125 21.25 26.8125 21.5625C26.4375 21.75 25.9375 21.625 25.625 21.3125C25.1875 20.8125 25.3125 20 25.9375 19.8125C27.1875 19.3125 28.5625 19 30 19ZM23.0625 22.9375C23.375 23.3125 23.375 23.9375 23 24.3125C21.75 25.875 21 27.875 21 30V31.5625C21 33.5 20.75 35.4375 20.25 37.3125C20.125 37.75 19.75 38 19.3125 38C18.625 38 18.1875 37.375 18.3125 36.75C18.75 35.0625 19 33.3125 19 31.5625V30C19 27.3125 19.9375 24.8125 21.625 22.875C22 22.4375 22.6875 22.5 23.0625 22.9375ZM30 24C33.3125 24 36 26.6875 36 30V31.5625C36 34.1875 35.6875 36.75 35.1875 39.25C35.125 39.6875 34.6875 40 34.25 40C33.5625 40 33.125 39.4375 33.25 38.8125C33.75 36.4375 34 34 34 31.5625V30C34 27.8125 32.1875 26 30 26C27.75 26 26 27.8125 26 30V31.5625C26 34.1875 25.625 36.8125 24.875 39.3125C24.75 39.75 24.375 40 23.9375 40C23.25 40 22.8125 39.375 23 38.6875C23.625 36.375 24 34 24 31.5625V30C24 26.6875 26.6875 24 30 24ZM31 30V31.5625C31 35.625 30.25 39.625 28.75 43.4375L28.375 44.375C28.1875 44.9375 27.625 45.1875 27.125 44.9375C26.5625 44.75 26.3125 44.1875 26.5625 43.6875L26.875 42.6875C28.25 39.1875 29 35.375 29 31.5625V30C29 29.5 29.4375 29 30 29C30.5 29 31 29.5 31 30Z" fill="white"/>
</svg>
