<svg width="60" height="60" viewBox="0 0 60 60" fill="none" xmlns="http://www.w3.org/2000/svg">
<rect width="60" height="60" rx="30" fill="#9E45B7"/>
<path d="M40 16H20C18.875 16 18 16.9375 18 18V42C18 43.125 18.875 44 20 44H40C41.0625 44 42 43.125 42 42V18C42 16.9375 41.0625 16 40 16ZM20 14H40C42.1875 14 44 15.8125 44 18V42C44 44.25 42.1875 46 40 46H20C17.75 46 16 44.25 16 42V18C16 15.8125 17.75 14 20 14ZM26 22C26 21.5 26.4375 21 27 21H38C38.5 21 39 21.5 39 22C39 22.5625 38.5 23 38 23H27C26.4375 23 26 22.5625 26 22ZM28 30C28 29.5 28.4375 29 29 29H38C38.5 29 39 29.5 39 30C39 30.5625 38.5 31 38 31H29C28.4375 31 28 30.5625 28 30ZM26 38C26 37.5 26.4375 37 27 37H38C38.5 37 39 37.5 39 38C39 38.5625 38.5 39 38 39H27C26.4375 39 26 38.5625 26 38ZM21.5 20.5H22.5C23 20.5 23.5 21 23.5 21.5V22.5C23.5 23.0625 23 23.5 22.5 23.5H21.5C20.9375 23.5 20.5 23.0625 20.5 22.5V21.5C20.5 21 20.9375 20.5 21.5 20.5ZM20.5 37.5C20.5 37 20.9375 36.5 21.5 36.5H22.5C23 36.5 23.5 37 23.5 37.5V38.5C23.5 39.0625 23 39.5 22.5 39.5H21.5C20.9375 39.5 20.5 39.0625 20.5 38.5V37.5ZM26.1875 29.25L23.1875 32.25C22.8125 32.625 22.125 32.625 21.75 32.25L20.25 30.75C19.875 30.375 19.875 29.6875 20.25 29.3125C20.625 28.9375 21.3125 28.9375 21.6875 29.3125L22.5 30.125L24.75 27.8125C25.125 27.4375 25.8125 27.4375 26.1875 27.8125C26.5625 28.1875 26.5625 28.875 26.1875 29.25Z" fill="white"/>
</svg>
