<svg width="36" height="48" viewBox="0 0 36 48" fill="none" xmlns="http://www.w3.org/2000/svg">
<path d="M28.5 31.5C29.25 31.5 30 32.25 30 33C30 33.8438 29.25 34.5 28.5 34.5H16.5C15.6562 34.5 15 33.8438 15 33C15 32.25 15.6562 31.5 16.5 31.5H28.5ZM28.5 22.5C29.25 22.5 30 23.25 30 24C30 24.8438 29.25 25.5 28.5 25.5H19.5C18.6562 25.5 18 24.8438 18 24C18 23.25 18.6562 22.5 19.5 22.5H28.5ZM9 30.75C10.2188 30.75 11.25 31.7812 11.25 33C11.25 34.3125 10.2188 35.25 9 35.25C7.6875 35.25 6.75 34.3125 6.75 33C6.75 31.7812 7.6875 30.75 9 30.75ZM30 6C33.2812 6 36 8.71875 36 12V42C36 45.375 33.2812 48 30 48H6C2.625 48 0 45.375 0 42V12C0 8.71875 2.625 6 6 6C6.75 6 7.5 6.75 7.5 7.5C7.5 8.34375 6.75 9 6 9C4.3125 9 3 10.4062 3 12V42C3 43.6875 4.3125 45 6 45H30C31.5938 45 33 43.6875 33 42V12C33 10.4062 31.5938 9 30 9C29.1562 9 28.5 8.34375 28.5 7.5C28.5 6.75 29.1562 6 30 6ZM10.5 12C9.65625 12 9 11.3438 9 10.5C9 9.75 9.65625 9 10.5 9H12.75C12.2812 8.15625 12 7.125 12 6C12 2.71875 14.625 0 18 0C21.2812 0 24 2.71875 24 6C24 7.125 23.625 8.15625 23.1562 9H25.5C26.25 9 27 9.75 27 10.5C27 11.3438 26.25 12 25.5 12H10.5ZM18 3C16.3125 3 15 4.40625 15 6C15 7.6875 16.3125 9 18 9C19.5938 9 21 7.6875 21 6C21 4.40625 19.5938 3 18 3ZM6.375 21.5625C6.9375 20.9062 7.875 20.9062 8.4375 21.4688L10.5938 23.4375L15.375 18.4688C15.9375 17.9062 16.875 17.9062 17.5312 18.4688C18.0938 19.0312 18.0938 19.9688 17.5312 20.625L11.8125 26.625C11.5312 26.9062 11.0625 27 10.6875 27C10.3125 27 9.9375 26.9062 9.65625 26.625L6.46875 23.625C5.8125 23.0625 5.8125 22.125 6.375 21.5625Z" fill="#02103F"/>
</svg>
