<svg width="100" height="100" viewBox="0 0 100 100" fill="none" xmlns="http://www.w3.org/2000/svg">
<rect width="100" height="100" rx="50" fill="#F8F9FF"/>
<path d="M32 35C30.3125 35 29 36.4062 29 38V41.75L47.2812 55.25C48.875 56.375 51.0312 56.375 52.625 55.25L71 41.75V38C71 36.4062 69.5938 35 68 35H32ZM29 45.5V62C29 63.6875 30.3125 65 32 65H68C69.5938 65 71 63.6875 71 62V45.5L54.4062 57.6875C51.7812 59.5625 48.125 59.5625 45.5 57.6875L29 45.5ZM26 38C26 34.7188 28.625 32 32 32H68C71.2812 32 74 34.7188 74 38V62C74 65.375 71.2812 68 68 68H32C28.625 68 26 65.375 26 62V38Z" fill="#2F469C"/>
</svg>
