<?xml version="1.0" encoding="utf-8"?>
<!-- Generator: Adobe Illustrator 28.3.0, SVG Export Plug-In . SVG Version: 6.00 Build 0)  -->
<svg version="1.1" id="Layer_1" xmlns="http://www.w3.org/2000/svg" xmlns:xlink="http://www.w3.org/1999/xlink" x="0px" y="0px"
	 width="200px" height="200px" viewBox="0 0 200 200" style="enable-background:new 0 0 200 200;" xml:space="preserve">
<style type="text/css">
	.st0{fill:#CCCDD1;}
	
		.st1{fill:none;stroke:#000000;stroke-width:3.6;stroke-linecap:round;stroke-linejoin:round;stroke-miterlimit:10;stroke-dasharray:4,10;}
	.st2{fill:#FFFFFF;}
	.st3{fill:none;stroke:#000000;stroke-width:3.4744;stroke-linecap:round;stroke-linejoin:round;stroke-miterlimit:10;}
	.st4{fill:#5D6AB0;}
	.st5{fill:none;stroke:#FFFFFF;stroke-width:3.4744;stroke-linecap:round;stroke-linejoin:round;stroke-miterlimit:10;}
</style>
<path id="Path_10778_00000137833139670469957970000002407422210772366004_" class="st0" d="M176.8,128.8c12.1-22.9,12.4-45.9-6-65.3
	C118.4,2.7,17.5-0.2,21.7,99.4c1.1,49.5,44.8,95.5,95.3,78.2C142.2,170,164.3,152.2,176.8,128.8"/>
<path id="Path_10778_00000130612373214212416130000013667159587325799056_" class="st1" d="M162.3,160"/>
<path id="Path_10764_00000162338317385124683510000017626121474529631902_" class="st1" d="M20.4,59.6"/>
<g>
	<g>
		<g>
			<g>
				<path class="st2" d="M77,158.9c-6.9,0-12.6-5.6-12.6-12.6V52.5C64.5,45.6,70.1,40,77,40h50.5c6.9,0,12.6,5.6,12.6,12.6v93.8
					c0,6.9-5.6,12.6-12.6,12.6H77z"/>
				<path d="M127.5,41.7c6,0,10.8,4.8,10.8,10.8v93.8c0,6-4.8,10.8-10.8,10.8H77c-6,0-10.8-4.8-10.8-10.8V52.5
					c0-6,4.8-10.8,10.8-10.8H127.5 M127.5,38.2H77c-7.9,0-14.3,6.4-14.3,14.3v93.8c0,7.9,6.4,14.3,14.3,14.3h50.5
					c7.9,0,14.3-6.4,14.3-14.3V52.5C141.8,44.7,135.4,38.2,127.5,38.2L127.5,38.2z"/>
			</g>
		</g>
		<line class="st3" x1="86.3" y1="134.7" x2="118.2" y2="134.7"/>
		<g>
			<g>
				<path class="st4" d="M113.4,110.8c-0.3,0-0.6-0.1-0.8-0.2l-10.4-5.5l-10.4,5.5c-0.3,0.1-0.5,0.2-0.8,0.2c-0.4,0-0.7-0.1-1-0.3
					c-0.5-0.4-0.8-1-0.7-1.7l2-11.6L82.8,89c-0.5-0.5-0.6-1.2-0.4-1.8c0.2-0.6,0.7-1.1,1.4-1.2l11.6-1.7l5.2-10.5
					c0.3-0.6,0.9-1,1.6-1l0,0c0.7,0,1.3,0.4,1.6,1l5.2,10.5l11.8,1.5c0.7,0.1,1.2,0.5,1.4,1.2s0,1.3-0.4,1.8l-8.6,8.4l2,11.6
					c0.1,0.7-0.2,1.3-0.7,1.7C114.1,110.7,113.7,110.8,113.4,110.8z"/>
				<path d="M102.2,74.6l5.6,11.3l12.7,1.6l-9.3,9l2.1,12.5l-11.2-5.9L91,109.1l2.1-12.5L84,87.8L96.6,86L102.2,74.6 M102.2,71.1
					c-1.3,0-2.5,0.8-3.1,1.9l-4.8,9.7l-10.7,1.6c-1.3,0.2-2.4,1.1-2.8,2.4c-0.4,1.3-0.1,2.6,0.9,3.6l7.8,7.5l-1.8,10.7
					c-0.2,1.3,0.3,2.6,1.4,3.4c0.6,0.4,1.3,0.7,2,0.7c0.6,0,1.1-0.1,1.6-0.4l9.6-5l9.6,5c0.5,0.3,1.1,0.4,1.6,0.4
					c0.7,0,1.4-0.2,2-0.7c1.1-0.8,1.6-2.1,1.4-3.4L115,97.8l8-7.7c1-0.9,1.3-2.3,0.9-3.6c-0.4-1.3-1.5-2.2-2.9-2.3l-10.9-1.4
					l-4.8-9.7C104.7,71.9,103.5,71.1,102.2,71.1L102.2,71.1z"/>
			</g>
		</g>
	</g>
	<g>
		<g>
			<path class="st4" d="M143.1,77.8c-3.1,0-6-1.4-8.1-3.7c-0.2,0-0.4,0-0.7,0c-2.9,0-5.7-1.1-7.7-3.2c-2.2-2.2-3.4-5.3-3.2-8.4
				c-2.3-2.1-3.7-5-3.7-8.2c0-3.2,1.3-6.1,3.7-8.2c-0.2-3.1,0.9-6.1,3.2-8.4c2.1-2.1,4.8-3.2,7.7-3.2c0.2,0,0.4,0,0.6,0
				c2.1-2.3,5-3.7,8.2-3.7s6.1,1.3,8.2,3.7c0.2,0,0.4,0,0.6,0c2.9,0,5.7,1.1,7.7,3.2c2.3,2.2,3.4,5.3,3.2,8.4c2.3,2.1,3.7,5,3.7,8.2
				c0,3.2-1.3,6.1-3.7,8.2c0.2,3.1-0.9,6.1-3.2,8.4c-2.1,2.1-4.8,3.2-7.7,3.2c-0.2,0-0.4,0-0.7,0C149.3,76.5,146.3,77.8,143.1,77.8z
				"/>
			<path d="M143.2,32.7c3,0,5.7,1.4,7.4,3.8c0.5-0.1,0.9-0.1,1.4-0.1c2.5,0,4.8,1,6.5,2.7c2.1,2.1,3,5,2.6,7.9
				c2.4,1.7,3.8,4.5,3.8,7.4s-1.4,5.7-3.8,7.4c0.5,2.9-0.5,5.8-2.6,7.9c-1.7,1.7-4,2.7-6.5,2.7c-0.5,0-0.9,0-1.4-0.1
				c-1.7,2.4-4.5,3.8-7.5,3.8c-2.9,0-5.6-1.4-7.3-3.8c-0.5,0.1-0.9,0.1-1.4,0.1c-2.5,0-4.8-1-6.5-2.7c-2.1-2.1-3-5-2.6-7.9
				c-2.4-1.7-3.8-4.5-3.8-7.4s1.4-5.7,3.8-7.4c-0.5-2.9,0.5-5.8,2.6-7.9c1.7-1.7,4-2.7,6.5-2.7c0.5,0,0.9,0,1.4,0.1
				C137.5,34.1,140.2,32.7,143.2,32.7 M143.2,29.3c-3.4,0-6.6,1.3-8.9,3.7c-3.4,0-6.5,1.3-8.9,3.7c-2.4,2.4-3.7,5.6-3.7,8.9
				c-2.3,2.4-3.6,5.5-3.6,8.9s1.3,6.6,3.6,8.9c0,3.3,1.3,6.5,3.7,8.9c2.4,2.4,5.5,3.7,8.9,3.7c2.3,2.3,5.5,3.7,8.8,3.7
				c3.4,0,6.6-1.3,9-3.7c3.4,0,6.5-1.3,8.9-3.7c2.4-2.4,3.7-5.6,3.7-8.9c2.3-2.4,3.7-5.5,3.7-8.9c0-3.4-1.3-6.6-3.7-8.9
				c0-3.3-1.3-6.5-3.7-8.9c-2.4-2.4-5.5-3.7-8.9-3.7C149.7,30.6,146.6,29.3,143.2,29.3L143.2,29.3z"/>
		</g>
		<polyline class="st5" points="135.8,55.2 140,59.4 150.5,49.4 		"/>
	</g>
</g>
</svg>
