<?xml version="1.0" encoding="utf-8"?>
<!-- Generator: Adobe Illustrator 27.0.0, SVG Export Plug-In . SVG Version: 6.00 Build 0)  -->
<svg version="1.1" id="Layer_1" xmlns="http://www.w3.org/2000/svg" xmlns:xlink="http://www.w3.org/1999/xlink" x="0px" y="0px"
	 viewBox="0 0 325 325" style="enable-background:new 0 0 325 325;" xml:space="preserve">
<style type="text/css">
	.st0{fill:#FFFFFF;stroke:#231F20;stroke-width:5.85;stroke-miterlimit:10;}
	.st1{fill:#FFFFFF;stroke:#231F20;stroke-width:5.85;stroke-linecap:round;stroke-linejoin:round;stroke-miterlimit:10;}
	.st2{fill:#74C6BE;}
	.st3{fill:#FFFFFF;}
	.st4{fill:#5D6AB0;}
	
		.st5{fill:none;stroke:#000000;stroke-width:5.85;stroke-linecap:round;stroke-linejoin:round;stroke-miterlimit:10;stroke-dasharray:6.5,16.25;}
</style>
<g>
	<circle class="st0" cx="289" cy="291.5" r="10.4"/>
	<g>
		<line class="st1" x1="41.6" y1="27.9" x2="23.4" y2="37.1"/>
		<line class="st1" x1="37.1" y1="41.6" x2="27.9" y2="23.4"/>
	</g>
	<g>
		<path id="Path_10764_00000121276271675307516380000016579051001034830749_" class="st2" d="M71.5,54.5
			c-17.7,10.2-32.1,23.9-39.4,43c-14.3,37.5-2.3,79.7,12,115.3c9.1,22.6,16.8,46.8,31.7,66.4c19,24.9,40.4,30.3,70.6,26.5
			c30.4-3.9,60.3-11,89.2-21.4c22.8-8.2,51.9-21.3,60.8-46.1c2-6.5,3-13.2,2.9-20c1.5-54.8-12.3-112.7-35-162.4
			c-19.1-41.9-54.8-42.1-95.1-32.7c-13.8,3.3-29.8,6.6-46.4,11.2C105.3,39.2,87.2,45.5,71.5,54.5"/>
	</g>
	<g>
		<g>
			<g>
				<path class="st3" d="M103.9,150.3c-8.2,0-14.9-6.7-14.9-14.9v-12c0-8.2,6.7-14.9,14.9-14.9h75c1.6,0,2.9,1.3,2.9,2.9v36
					c0,1.6-1.3,2.9-2.9,2.9H103.9z"/>
				<path d="M178.9,111.4v36h-75c-6.6,0-12-5.4-12-12v-12c0-6.6,5.4-12,12-12H178.9 M178.9,105.5h-75c-9.8,0-17.9,8-17.9,17.9v12
					c0,9.8,8,17.9,17.9,17.9h75c3.2,0,5.8-2.6,5.8-5.9v-36C184.8,108.1,182.1,105.5,178.9,105.5L178.9,105.5z"/>
			</g>
			<g>
				<path class="st3" d="M121.9,246.3c-11.5,0-20.9-9.4-20.9-20.9v-72c0-1.6,1.3-2.9,2.9-2.9h75c1.6,0,2.9,1.3,2.9,2.9v90
					c0,1.6-1.3,2.9-2.9,2.9H121.9z"/>
				<path d="M178.9,153.4v90h-57c-9.9,0-18-8.1-18-18v-72H178.9 M178.9,147.5h-75c-3.2,0-5.8,2.6-5.8,5.8v72
					c0,13.2,10.7,23.9,23.9,23.9h57c3.2,0,5.9-2.6,5.9-5.9v-90C184.8,150.1,182.1,147.5,178.9,147.5L178.9,147.5z"/>
			</g>
			<g>
				<path class="st4" d="M136.9,108.3c-13.2,0-23.9-10.7-23.9-23.9s10.7-23.9,23.9-23.9h1.1c8.7,0,16.6,4.4,21.2,11.8l19.8,31.6
					c0.6,0.9,0.6,2,0.1,3s-1.5,1.5-2.6,1.5H136.9z"/>
				<g>
					<path d="M138,63.4c7.6,0,14.7,3.9,18.8,10.4l19.8,31.6h-39.6c-11.6,0-21-9.4-21-21c0-11.6,9.4-21,21-21H138 M138,57.5h-1.1
						c-14.8,0-26.9,12-26.9,26.9s12,26.9,26.9,26.9h39.6c2.1,0,4.1-1.2,5.1-3c1-1.9,1-4.1-0.2-5.9l-19.8-31.6
						C156.6,62.4,147.7,57.5,138,57.5L138,57.5z"/>
				</g>
			</g>
			<g>
				<path class="st3" d="M184.9,150.3c-1.6,0-2.9-1.3-2.9-2.9v-36c0-1.6,1.3-2.9,2.9-2.9h75c8.2,0,14.9,6.7,14.9,14.9v12
					c0,8.2-6.7,14.9-14.9,14.9H184.9z"/>
				<path d="M259.9,111.4c6.6,0,12,5.4,12,12v12c0,6.6-5.4,12-12,12h-75v-36H259.9 M259.9,105.5h-75c-3.2,0-5.8,2.6-5.8,5.9v36
					c0,3.2,2.6,5.9,5.8,5.9h75c9.8,0,17.9-8,17.9-17.9v-12C277.8,113.5,269.8,105.5,259.9,105.5L259.9,105.5z"/>
			</g>
			<g>
				<path class="st3" d="M184.9,246.3c-1.6,0-2.9-1.3-2.9-2.9v-90c0-1.6,1.3-2.9,2.9-2.9h75c1.6,0,2.9,1.3,2.9,2.9v72
					c0,11.5-9.4,20.9-20.9,20.9H184.9z"/>
				<path d="M259.9,153.4v72c0,9.9-8.1,18-18,18h-57v-90H259.9 M259.9,147.5h-75c-3.2,0-5.9,2.6-5.9,5.8v90c0,3.2,2.6,5.9,5.9,5.9
					h57c13.2,0,23.9-10.7,23.9-23.9v-72C265.8,150.1,263.2,147.5,259.9,147.5L259.9,147.5z"/>
			</g>
			<g>
				<path class="st4" d="M187.3,108.3c-1.1,0-2-0.6-2.6-1.5s-0.5-2.1,0.1-3l19.8-31.6c4.6-7.4,12.6-11.8,21.2-11.8h1.1
					c13.2,0,23.9,10.7,23.9,23.9s-10.7,23.9-23.9,23.9H187.3z"/>
				<g>
					<path d="M226.9,63.4c11.6,0,21,9.4,21,21c0,11.6-9.4,21-21,21h-39.6l19.8-31.6c4.1-6.5,11.1-10.4,18.8-10.4H226.9 M226.9,57.5
						h-1.1c-9.7,0-18.6,4.9-23.7,13.1l-19.8,31.6c-1.1,1.8-1.2,4.1-0.2,5.9c1,1.9,3,3,5.1,3h39.6c14.8,0,26.9-12,26.9-26.9
						S241.7,57.5,226.9,57.5L226.9,57.5z"/>
				</g>
			</g>
		</g>
		<g>
			<g>
				<path class="st3" d="M98.4,294.4c-3.2,0-6.1-1.2-8.4-3.5l-40.9-41.8c-4.5-4.6-4.4-12,0.2-16.5l58.5-57.2
					c2.2-2.2,5.1-3.3,8.2-3.3c3.2,0,6.1,1.2,8.4,3.5l13.6,13.9c0.6,0.6,0.9,1.5,0.8,2.4s-0.6,1.6-1.3,2.1c-0.4,0.3-0.7,0.5-1,0.8
					c-1.3,1.3-2.1,3.1-2.1,5c0,1.9,0.7,3.7,2,5c1.3,1.4,3.1,2.1,5,2.1c1.9,0,3.6-0.7,4.9-2c0.3-0.3,0.6-0.6,0.9-1
					c0.5-0.7,1.3-1.2,2.2-1.2c0.1,0,0.2,0,0.2,0c0.8,0,1.5,0.3,2.1,0.9l13.6,13.9c2.2,2.2,3.4,5.2,3.3,8.3c0,3.1-1.3,6-3.5,8.2
					l-58.5,57.2C104.4,293.2,101.5,294.4,98.4,294.4C98.4,294.4,98.4,294.4,98.4,294.4z"/>
				<path d="M116,175c2.3,0,4.6,0.9,6.3,2.6l13.6,13.9c-0.5,0.3-1,0.7-1.5,1.2c-3.9,3.9-4,10.2-0.2,14.1c2,2,4.5,3,7.1,3
					c2.5,0,5-0.9,7-2.8c0.5-0.5,0.9-0.9,1.2-1.5l7.5,7.6l2,2.1l1.8,1.8l2.3,2.4c3.4,3.5,3.3,9-0.1,12.4L104.5,289
					c-1.7,1.7-3.9,2.5-6.1,2.5c-2.3,0-4.5-0.9-6.3-2.6l-2.3-2.4l-1.8-1.8l-2-2.1l-12.3-12.5l-22.5-23c-3.4-3.5-3.3-9,0.1-12.4
					l58.5-57.2C111.6,175.8,113.8,175,116,175 M116,169.1c-3.8,0-7.5,1.5-10.2,4.2l-58.5,57.2c-2.8,2.7-4.3,6.4-4.4,10.3
					c0,3.9,1.4,7.6,4.2,10.4l22.5,23l12.3,12.5l2,2.1l1.8,1.8l2.3,2.4c2.8,2.8,6.5,4.4,10.4,4.4c3.8,0,7.5-1.5,10.2-4.2l58.5-57.2
					c2.8-2.7,4.4-6.4,4.4-10.3c0-3.9-1.4-7.6-4.2-10.4l-2.3-2.4l-1.8-1.8l-2-2.1l-7.5-7.6c-1.1-1.1-2.6-1.8-4.2-1.8
					c-0.2,0-0.3,0-0.5,0c-1.7,0.1-3.3,1.1-4.3,2.5c-0.2,0.2-0.3,0.4-0.5,0.6c-0.8,0.8-1.8,1.2-2.9,1.2c-1.1,0-2.2-0.4-3-1.2
					c-1.6-1.6-1.6-4.2,0.1-5.8c0.2-0.2,0.4-0.3,0.6-0.5c1.5-1,2.4-2.5,2.6-4.3c0.2-1.7-0.4-3.5-1.6-4.7l-13.6-13.9
					C123.7,170.7,120,169.1,116,169.1L116,169.1z"/>
			</g>
			<g>
				<path d="M146.8,247.6l-7-7.1c-1.2-1.2-1.2-3.2,0-4.4c1.2-1.2,3.2-1.2,4.4,0l7,7.1L146.8,247.6z M98.2,188.9l6.8,7
					c1.2,1.2,1.2,3.2,0,4.4c-1.2,1.2-3.2,1.2-4.4,0l-6.8-7L98.2,188.9z M108.9,208.8c-1.2-1.2-1.2-3.2,0-4.4c1.2-1.2,3.2-1.2,4.4,0
					l7.1,7.3c1.2,1.2,1.2,3.2,0,4.4s-3.2,1.2-4.4,0L108.9,208.8z M124.4,224.6c-1.2-1.2-1.2-3.2,0-4.4c1.2-1.2,3.2-1.2,4.4,0
					l7.1,7.3c1.2,1.2,1.2,3.2,0,4.4s-3.2,1.2-4.4,0L124.4,224.6z"/>
			</g>
			<g>
				<g>
					<g>
						<path class="st4" d="M101.3,264.1c-0.9,0-1.8-0.5-2.4-1.2l-5.7-8.1c0,0-9.9,0.1-9.9,0.1c-1.1,0-2.1-0.6-2.6-1.6
							c-0.5-1-0.4-2.2,0.3-3.1l6-7.9l-3.1-9.4c-0.4-1.1-0.1-2.2,0.7-3c0.6-0.6,1.3-0.8,2.1-0.8c0.3,0,0.6,0.1,1,0.2l9.3,3.2l8-6.1
							c0.5-0.4,1.1-0.6,1.8-0.6c0.5,0,0.9,0.1,1.3,0.3c1,0.5,1.6,1.5,1.6,2.7l-0.2,10.2l8.1,5.8c0.9,0.6,1.4,1.8,1.2,2.9
							c-0.2,1.1-1,2-2,2.3l-9.5,2.9l-3,9.5c-0.3,1.1-1.2,1.8-2.3,2C101.6,264.1,101.4,264.1,101.3,264.1z"/>
						<path d="M106.6,228.5L106.6,228.5 M106.6,228.5l-0.2,11.7l9.3,6.7l-11,3.3l-3.5,10.9l-6.6-9.4l-11.4,0.1l6.9-9.2l-3.6-10.9
							l10.8,3.7L106.6,228.5 M106.6,222.7c0,0-0.1,0-0.1,0c-1.3,0-2.5,0.5-3.5,1.2l-6.7,5.1l-7.9-2.7c-0.6-0.2-1.3-0.3-1.9-0.3
							c-1.5,0-3,0.6-4.1,1.7c-1.6,1.6-2.1,3.9-1.4,6l2.7,8l-5.1,6.7c-1.3,1.8-1.6,4.2-0.5,6.2c1,2,3,3.2,5.2,3.2c0,0,0,0,0.1,0
							l8.4-0.1l4.8,6.9c1.1,1.6,2.9,2.5,4.8,2.5c0.3,0,0.6,0,0.9-0.1c2.2-0.3,4-1.9,4.7-4l2.5-8l8-2.5c2.1-0.7,3.7-2.5,4.1-4.7
							c0.4-2.2-0.6-4.4-2.4-5.7l-6.8-4.9l0.2-8.4c0-0.1,0-0.2,0-0.3C112.4,225.3,109.8,222.7,106.6,222.7
							C106.6,222.7,106.6,222.7,106.6,222.7L106.6,222.7z M106.6,234.4L106.6,234.4L106.6,234.4L106.6,234.4z"/>
					</g>
				</g>
			</g>
		</g>
	</g>
	<path class="st5" d="M12.6,228.4c0,0,25.7,62.6,39.7,76.2"/>
</g>
</svg>
